<svg width="21" height="20" viewBox="0 0 21 20" fill="none" xmlns="http://www.w3.org/2000/svg">
<path d="M10.5 18.3332C15.1024 18.3332 18.8334 14.6022 18.8334 9.99984C18.8334 5.39746 15.1024 1.6665 10.5 1.6665C5.89765 1.6665 2.16669 5.39746 2.16669 9.99984C2.16669 14.6022 5.89765 18.3332 10.5 18.3332Z" stroke="#6941C6" stroke-width="1.66667" stroke-linecap="round" stroke-linejoin="round"/>
<path d="M8.41669 7.47095C8.41669 7.07321 8.41669 6.87434 8.49981 6.76332C8.57224 6.66657 8.68312 6.60603 8.80367 6.59742C8.94201 6.58754 9.10929 6.69508 9.44386 6.91016L13.3777 9.43905C13.668 9.62569 13.8132 9.719 13.8633 9.83766C13.9071 9.94134 13.9071 10.0583 13.8633 10.162C13.8132 10.2807 13.668 10.374 13.3777 10.5606L9.44386 13.0895C9.10929 13.3046 8.94201 13.4121 8.80367 13.4023C8.68312 13.3936 8.57224 13.3331 8.49981 13.2364C8.41669 13.1253 8.41669 12.9265 8.41669 12.5287V7.47095Z" stroke="#6941C6" stroke-width="1.66667" stroke-linecap="round" stroke-linejoin="round"/>
</svg>
